HIERARCHY
ROOT Hips
{
	OFFSET 0.00000 0.00000 0.00000
	CHANNELS 6 Xposition Yposition Zposition Zrotation Yrotation Xrotation 
	JOINT LHipJoint
	{
		OFFSET 0 0 0
		CHANNELS 3 Zrotation Yrotation Xrotation
		JOINT LeftHip
		{
			OFFSET 1.48831 -1.59570 0.95625
			CHANNELS 3 Zrotation Yrotation Xrotation
			JOINT LeftKnee
			{
				OFFSET 2.20856 -6.06797 0.00000
				CHANNELS 3 Zrotation Yrotation Xrotation
				JOINT LeftAnkle
				{
					OFFSET 2.62924 -7.22379 0.00000
					CHANNELS 3 Zrotation Yrotation Xrotation
					JOINT LeftToe
					{
						OFFSET 0.16802 -0.46163 2.41673
						CHANNELS 3 Zrotation Yrotation Xrotation
						End Site
						{
							OFFSET 0.00000 -0.00000 1.23760
						}
					}
				}
			}
		}
	}
	JOINT RHipJoint
	{
		OFFSET 0 0 0
		CHANNELS 3 Zrotation Yrotation Xrotation
		JOINT RightHip
		{
			OFFSET -1.56796 -1.59570 0.95625
			CHANNELS 3 Zrotation Yrotation Xrotation
			JOINT RightKnee
			{
				OFFSET -2.29239 -6.29829 0.00000
				CHANNELS 3 Zrotation Yrotation Xrotation
				JOINT RightAnkle
				{
					OFFSET -2.66963 -7.33475 0.00000
					CHANNELS 3 Zrotation Yrotation Xrotation
					JOINT RightToe
					{
						OFFSET -0.18185 -0.49964 2.34359
						CHANNELS 3 Zrotation Yrotation Xrotation
						End Site
						{
							OFFSET -0.00000 -0.00000 1.20477
						}
					}
				}
			}
		}
	}
	JOINT lowerback
	{
		OFFSET 0 0 0
		CHANNELS 3 Zrotation Yrotation Xrotation
		JOINT Chest
		{
			OFFSET 0.03505 2.15832 -0.34324
			CHANNELS 3 Zrotation Yrotation Xrotation
			JOINT Chest2
			{
				OFFSET -0.01089 2.17963 0.04689
				CHANNELS 3 Zrotation Yrotation Xrotation
				JOINT lowerneck
				{
					OFFSET 0 0 0
					CHANNELS 3 Zrotation Yrotation Xrotation
					JOINT Neck
					{
						OFFSET 0.04686 1.69404 0.22159
						CHANNELS 3 Zrotation Yrotation Xrotation
						JOINT Head
						{
							OFFSET 0.00265 1.69305 -0.01513
							CHANNELS 3 Zrotation Yrotation Xrotation
							End Site
							{
								OFFSET -0.00415 1.80215 -0.03034
							}
						}
					}
				}
				JOINT LeftCollar
				{
					OFFSET 0 0 0
					CHANNELS 3 Zrotation Yrotation Xrotation
					JOINT LeftShoulder
					{
						OFFSET 3.67184 1.11724 -0.19002
CHANNELS 3 Zrotation Xrotation Yrotation
						JOINT LeftElbow
						{
OFFSET 0 -5.177140 -0.000000
CHANNELS 3 Zrotation Xrotation Yrotation
							JOINT LeftWrist
							{
OFFSET 0 -3.436790 -0.000000
CHANNELS 3 Zrotation Xrotation Yrotation
								JOINT lhand
								{
									OFFSET 0 0 0
CHANNELS 3 Zrotation Xrotation Yrotation
									JOINT LFingers
									{
OFFSET 0 -0.573120 -0.000000
CHANNELS 3 Zrotation Xrotation Yrotation
										End Site
										{
OFFSET 0 -0.462060 -0.000000
										}
									}
								}
								JOINT LThumb
								{
OFFSET 0 0.000000 0.000000
CHANNELS 3 Zrotation Xrotation Yrotation
									End Site
									{
OFFSET 0 -0.469120 0.469120
									}
								}
							}
						}
					}
				}
				JOINT RightCollar
				{
					OFFSET 0 0 0
					CHANNELS 3 Zrotation Yrotation Xrotation
					JOINT RightShoulder
					{
						OFFSET -3.59596 0.95831 -0.26050
CHANNELS 3 Zrotation Xrotation Yrotation
						JOINT RightElbow
						{
OFFSET 0 -5.239080 -0.000000
CHANNELS 3 Zrotation Xrotation Yrotation
							JOINT RightWrist
							{
OFFSET 0 -3.464850 -0.000000
CHANNELS 3 Zrotation Xrotation Yrotation
								JOINT rhand
								{
									OFFSET 0 0 0
CHANNELS 3 Zrotation Xrotation Yrotation
									JOINT RFingers
									{
OFFSET 0 -0.608750 -0.000000
CHANNELS 3 Zrotation Xrotation Yrotation
										End Site
										{
OFFSET 0 -0.490790 -0.000000
										}
									}
								}
								JOINT RThumb
								{
OFFSET 0 0.000000 0.000000
CHANNELS 3 Zrotation Xrotation Yrotation
									End Site
									{
OFFSET 0 -0.498290 0.498290
									}
								}
							}
						}
					}
				}
			}
		}
	}
}
MOTION
Frames: 4
Frame Time: 0.008333333333333333
-3.680499 16.174191 -5.476643 -538.744077 -2.595222 538.058718 0.000000 0.000000 0.000000 -29.154181 21.791675 -18.906060 2.072005 9.014447 25.840544 1.146060 1.602983 -20.862683 0.031068 1.137515 3.127329 0.000000 0.000000 0.000000 24.351445 -19.020666 12.965578 -1.464248 -7.642896 21.636846 -1.030987 1.788430 -18.677790 -0.381491 3.966476 -10.982362 9.484612 2.416398 -3.288617 -0.965597 2.887791 -1.583491 -6.208655 1.393169 0.717173 9.359470 16.447410 3.831590 0.182810 21.188289 18.377792 -0.361075 10.537800 6.021092 0.000000 0.000000 0.000000 7.564716 -6.450910 -32.095043 22.885762 -33.963686 7.074347 6.682543 -21.526689 -24.859894 0.000000 0.000000 0.000000 -7.125000 0.000000 0.000000 -23.649017 53.390451 5.104503 0.000000 0.000000 0.000000 -3.788529 14.408463 16.126838 -13.736393 -22.356578 -2.727036 -15.338960 18.658294 1.848317 0.000000 0.000000 0.000000 7.125000 0.000000 0.000000 9.008126 31.813422 2.937926
-3.748545 16.133845 -5.533513 -539.220462 -3.069331 538.770945 0.000000 0.000000 0.000000 -30.161438 21.441920 -19.535688 2.089160 9.049395 25.950066 1.225458 0.888799 -21.262306 0.064925 1.644066 4.522982 0.000000 0.000000 0.000000 20.946343 -20.602841 1.634342 -4.462513 -12.747236 38.436657 -0.265595 6.121917 -9.487665 -0.449361 4.300786 -11.924409 9.374277 2.158429 -2.130442 -0.663444 2.662193 -1.031680 -5.871815 1.304019 0.583035 9.607842 16.675436 3.897573 -1.403053 21.833240 17.457980 -0.827600 10.827322 5.950746 0.000000 0.000000 0.000000 6.724840 -5.205127 -36.824465 20.965522 -31.787578 6.032038 4.456607 -22.645470 -25.226517 0.000000 0.000000 0.000000 -7.125000 0.000000 0.000000 -25.990168 53.325966 5.621529 0.000000 0.000000 0.000000 -5.013240 13.421482 17.231418 -14.295312 -23.155250 -2.943292 -15.550649 17.476969 2.068367 0.000000 0.000000 0.000000 7.125000 0.000000 0.000000 8.863348 32.044171 2.839903
-3.766892 16.067226 -5.502201 -544.022180 -2.788198 539.223080 0.000000 0.000000 0.000000 -36.092728 24.858803 -19.689089 1.553604 7.866317 22.309001 1.052989 -1.651965 -18.915977 0.138238 2.395843 6.601059 0.000000 0.000000 0.000000 12.618888 -16.619614 -10.943285 -10.147294 -17.487735 59.973912 0.069230 4.717973 2.262201 -0.357355 3.834769 -10.613028 4.462216 1.846879 1.114633 -1.669471 2.513052 -0.686859 -4.268335 1.213485 -1.064691 9.860609 16.849579 4.197062 -2.576545 22.333770 16.137193 -1.225503 11.081720 5.671610 0.000000 0.000000 0.000000 5.682280 -5.004355 -36.856280 16.022358 -25.548782 3.656876 3.582806 -19.871360 -25.049675 0.000000 0.000000 0.000000 -7.125000 0.000000 0.000000 -26.703577 53.013985 5.582267 0.000000 0.000000 0.000000 -5.745315 11.688356 17.991904 -15.939739 -25.438612 -3.620127 -16.702776 15.677337 2.124496 0.000000 0.000000 0.000000 7.125000 0.000000 0.000000 7.949259 32.131056 2.525017
-3.782494 15.989941 -5.506223 -547.043414 -4.437564 539.434406 0.000000 0.000000 0.000000 -39.568099 28.059582 -19.651669 1.289225 7.194597 20.293191 0.862630 -5.834365 -16.560379 0.217646 3.003545 8.288673 0.000000 0.000000 0.000000 6.395806 -12.827874 -21.110066 -14.716231 -19.316748 74.380119 0.072400 4.867091 2.774125 -0.676738 5.260183 -14.652228 1.521369 0.946638 2.571517 -2.415525 1.231125 0.135336 -3.379528 0.582867 -1.217018 9.604651 16.889020 4.008382 -3.074206 22.470300 15.618232 -1.329883 11.133835 5.571334 0.000000 0.000000 0.000000 4.342167 -6.804330 -28.898408 9.391370 -15.781122 1.305215 5.318102 -11.106065 -23.628711 0.000000 0.000000 0.000000 -7.125000 0.000000 0.000000 -24.226989 52.033160 4.408714 0.000000 0.000000 0.000000 -5.872325 8.705786 18.174846 -17.417468 -27.404834 -4.277777 -18.815023 14.141859 1.808501 0.000000 0.000000 0.000000 7.125000 0.000000 0.000000 6.232110 31.851024 2.015366
